HIERARCHY
ROOT hip
{
  OFFSET 0 90.174 2.4664
  CHANNELS 6 Xposition Yposition Zposition Zrotation Xrotation Yrotation
  JOINT abdomen
  {
    OFFSET 0 -1.186 -1.5018
    CHANNELS 6 Xposition Yposition Zposition Zrotation Xrotation Yrotation
    JOINT abdomen2
    {
      OFFSET 0 9.964 0.2134
      CHANNELS 6 Xposition Yposition Zposition Zrotation Xrotation Yrotation
      JOINT chest
      {
        OFFSET 0 13.134 -3.2573
        CHANNELS 6 Xposition Yposition Zposition Zrotation Xrotation Yrotation
        JOINT neck
        {
          OFFSET 0 20.686 -1.6905
          CHANNELS 6 Xposition Yposition Zposition Zrotation Xrotation Yrotation
          JOINT head
          {
            OFFSET 0 7.238 -0.1237
            CHANNELS 6 Xposition Yposition Zposition Zrotation Xrotation Yrotation
            End Site
            {
              OFFSET 0 0 0
            }
          }
        }
        JOINT lCollar
        {
          OFFSET 1.7069 20.075 5.0056
          CHANNELS 6 Xposition Yposition Zposition Zrotation Xrotation Yrotation
          JOINT lShldr
          {
            OFFSET 13.6458 -0.047 -4.849
            CHANNELS 6 Xposition Yposition Zposition Zrotation Xrotation Yrotation
            JOINT lForeArm
            {
              OFFSET 28.3255 -0.9759 2.2888
              CHANNELS 6 Xposition Yposition Zposition Zrotation Xrotation Yrotation
              JOINT lHand
              {
                OFFSET 22.1583 -0.53 10.8316
                CHANNELS 6 Xposition Yposition Zposition Zrotation Xrotation Yrotation
                JOINT lThumb1
                {
                  OFFSET 0.786 0.112 2.5817
                  CHANNELS 6 Xposition Yposition Zposition Zrotation Xrotation Yrotation
                  JOINT lThumb2
                  {
                    OFFSET 0.3601 -0.878 4.2331
                    CHANNELS 6 Xposition Yposition Zposition Zrotation Xrotation Yrotation
                    JOINT lThumb2_End
                    {
                      OFFSET 1.8127 -1.216 2.2227
                      CHANNELS 6 Xposition Yposition Zposition Zrotation Xrotation Yrotation
                      End Site
                      {
                        OFFSET 0.0181 -0.0122 0.0222
                      }
                    }
                  }
                }
                JOINT lCarpal1
                {
                  OFFSET 0.9571 1.114 1.7695
                  CHANNELS 6 Xposition Yposition Zposition Zrotation Xrotation Yrotation
                  JOINT lIndex1
                  {
                    OFFSET 4.1246 0.487 4.1451
                    CHANNELS 6 Xposition Yposition Zposition Zrotation Xrotation Yrotation
                    JOINT lIndex2
                    {
                      OFFSET 3.4052 -1.454 2.7682
                      CHANNELS 6 Xposition Yposition Zposition Zrotation Xrotation Yrotation
                      JOINT lIndex2_End
                      {
                        OFFSET 1.4531 -1.795 1.2713
                        CHANNELS 6 Xposition Yposition Zposition Zrotation Xrotation Yrotation
                        End Site
                        {
                          OFFSET 0.0145 -0.0179 0.0127
                        }
                      }
                    }
                  }
                  JOINT lMid1
                  {
                    OFFSET 5.6954 0.21 2.1184
                    CHANNELS 6 Xposition Yposition Zposition Zrotation Xrotation Yrotation
                    JOINT lMid2
                    {
                      OFFSET 3.9766 -1.54 2.3863
                      CHANNELS 6 Xposition Yposition Zposition Zrotation Xrotation Yrotation
                      JOINT lMid2_End
                      {
                        OFFSET 1.4042 -1.926 1.125
                        CHANNELS 6 Xposition Yposition Zposition Zrotation Xrotation Yrotation
                        End Site
                        {
                          OFFSET 0.014 -0.0193 0.0113
                        }
                      }
                    }
                  }
                }
                JOINT lCarpal2
                {
                  OFFSET 2.0956 0.66 -0.3894
                  CHANNELS 6 Xposition Yposition Zposition Zrotation Xrotation Yrotation
                  JOINT lRing1
                  {
                    OFFSET 5.0395 -0.09 2.4971
                    CHANNELS 6 Xposition Yposition Zposition Zrotation Xrotation Yrotation
                    JOINT lRing2
                    {
                      OFFSET 3.7921 -1.552 1.4806
                      CHANNELS 6 Xposition Yposition Zposition Zrotation Xrotation Yrotation
                      JOINT lRing2_End
                      {
                        OFFSET 1.4655 -1.808 0.9609
                        CHANNELS 6 Xposition Yposition Zposition Zrotation Xrotation Yrotation
                        End Site
                        {
                          OFFSET 0.0147 -0.0181 0.0096
                        }
                      }
                    }
                  }
                  JOINT lPinky1
                  {
                    OFFSET 4.9141 -1.269 0.3591
                    CHANNELS 6 Xposition Yposition Zposition Zrotation Xrotation Yrotation
                    JOINT lPinky2
                    {
                      OFFSET 3.1477 -1.685 0.8462
                      CHANNELS 6 Xposition Yposition Zposition Zrotation Xrotation Yrotation
                      JOINT lPinky2_End
                      {
                        OFFSET 0.8055 -1.585 0.7955
                        CHANNELS 6 Xposition Yposition Zposition Zrotation Xrotation Yrotation
                        End Site
                        {
                          OFFSET 0.0081 -0.0158 0.008
                        }
                      }
                    }
                  }
                }
              }
            }
          }
        }
        JOINT rCollar
        {
          OFFSET -1.7069 20.075 5.0056
          CHANNELS 6 Xposition Yposition Zposition Zrotation Xrotation Yrotation
          JOINT rShldr
          {
            OFFSET -13.6458 -0.047 -4.849
            CHANNELS 6 Xposition Yposition Zposition Zrotation Xrotation Yrotation
            JOINT rForeArm
            {
              OFFSET -28.3255 -0.9759 2.2888
              CHANNELS 6 Xposition Yposition Zposition Zrotation Xrotation Yrotation
              JOINT rHand
              {
                OFFSET -22.1583 -0.53 10.8316
                CHANNELS 6 Xposition Yposition Zposition Zrotation Xrotation Yrotation
                JOINT rThumb1
                {
                  OFFSET -0.786 0.112 2.5817
                  CHANNELS 6 Xposition Yposition Zposition Zrotation Xrotation Yrotation
                  JOINT rThumb2
                  {
                    OFFSET -0.3601 -0.878 4.2331
                    CHANNELS 6 Xposition Yposition Zposition Zrotation Xrotation Yrotation
                    JOINT rThumb2_End
                    {
                      OFFSET -1.8127 -1.216 2.2227
                      CHANNELS 6 Xposition Yposition Zposition Zrotation Xrotation Yrotation
                      End Site
                      {
                        OFFSET -0.0181 -0.0122 0.0222
                      }
                    }
                  }
                }
                JOINT rCarpal1
                {
                  OFFSET -0.9571 1.114 1.7695
                  CHANNELS 6 Xposition Yposition Zposition Zrotation Xrotation Yrotation
                  JOINT rIndex1
                  {
                    OFFSET -4.1246 0.487 4.1451
                    CHANNELS 6 Xposition Yposition Zposition Zrotation Xrotation Yrotation
                    JOINT rIndex2
                    {
                      OFFSET -3.4052 -1.454 2.7682
                      CHANNELS 6 Xposition Yposition Zposition Zrotation Xrotation Yrotation
                      JOINT rIndex2_End
                      {
                        OFFSET -1.4531 -1.795 1.2713
                        CHANNELS 6 Xposition Yposition Zposition Zrotation Xrotation Yrotation
                        End Site
                        {
                          OFFSET -0.0145 -0.018 0.0127
                        }
                      }
                    }
                  }
                  JOINT rMid1
                  {
                    OFFSET -5.6954 0.21 2.1184
                    CHANNELS 6 Xposition Yposition Zposition Zrotation Xrotation Yrotation
                    JOINT rMid2
                    {
                      OFFSET -3.9766 -1.54 2.3863
                      CHANNELS 6 Xposition Yposition Zposition Zrotation Xrotation Yrotation
                      JOINT rMid2_End
                      {
                        OFFSET -1.4042 -1.926 1.125
                        CHANNELS 6 Xposition Yposition Zposition Zrotation Xrotation Yrotation
                        End Site
                        {
                          OFFSET -0.014 -0.0193 0.0113
                        }
                      }
                    }
                  }
                }
                JOINT rCarpal2
                {
                  OFFSET -2.0956 0.66 -0.3894
                  CHANNELS 6 Xposition Yposition Zposition Zrotation Xrotation Yrotation
                  JOINT rRing1
                  {
                    OFFSET -5.0395 -0.09 2.4971
                    CHANNELS 6 Xposition Yposition Zposition Zrotation Xrotation Yrotation
                    JOINT rRing2
                    {
                      OFFSET -3.7921 -1.552 1.4806
                      CHANNELS 6 Xposition Yposition Zposition Zrotation Xrotation Yrotation
                      JOINT rRing2_End
                      {
                        OFFSET -1.4655 -1.808 0.9609
                        CHANNELS 6 Xposition Yposition Zposition Zrotation Xrotation Yrotation
                        End Site
                        {
                          OFFSET -0.0147 -0.0181 0.0096
                        }
                      }
                    }
                  }
                  JOINT rPinky1
                  {
                    OFFSET -4.9141 -1.269 0.3592
                    CHANNELS 6 Xposition Yposition Zposition Zrotation Xrotation Yrotation
                    JOINT rPinky2
                    {
                      OFFSET -3.1477 -1.685 0.8462
                      CHANNELS 6 Xposition Yposition Zposition Zrotation Xrotation Yrotation
                      JOINT rPinky2_End
                      {
                        OFFSET -0.8055 -1.585 0.7955
                        CHANNELS 6 Xposition Yposition Zposition Zrotation Xrotation Yrotation
                        End Site
                        {
                          OFFSET -0.0081 -0.0158 0.008
                        }
                      }
                    }
                  }
                }
              }
            }
          }
        }
      }
    }
  }
  JOINT lThigh
  {
    OFFSET 8.367 -8.2066 0.5982
    CHANNELS 6 Xposition Yposition Zposition Zrotation Xrotation Yrotation
    JOINT lShin
    {
      OFFSET 2.1923 -43.463 -0.4932
      CHANNELS 6 Xposition Yposition Zposition Zrotation Xrotation Yrotation
      JOINT lFoot
      {
        OFFSET 0.7333 -45.8593 -2.6451
        CHANNELS 6 Xposition Yposition Zposition Zrotation Xrotation Yrotation
        End Site
        {
          OFFSET 2.6618 -4.2699 12.3931
        }
      }
    }
  }
  JOINT rThigh
  {
    OFFSET -8.367 -8.2066 0.5982
    CHANNELS 6 Xposition Yposition Zposition Zrotation Xrotation Yrotation
    JOINT rShin
    {
      OFFSET -2.1923 -43.463 -0.4931
      CHANNELS 6 Xposition Yposition Zposition Zrotation Xrotation Yrotation
      JOINT rFoot
      {
        OFFSET -0.7333 -45.8593 -2.6451
        CHANNELS 6 Xposition Yposition Zposition Zrotation Xrotation Yrotation
        End Site
        {
          OFFSET -2.6618 -4.2699 12.3931
        }
      }
    }
  }
}
MOTION
Frames:	4
Frame Time:	0.0333333
0 90.174 2.4664 0 0 -0 0 -1.186 -1.5018 0 0 -0 0 9.964 0.2134 0 0 -0 0 13.134 -3.2573 0 0 -0 0 20.686 -1.6905 0 0 -0 0 7.238 -0.1237 0 0 -0 1.7069 20.075 5.0056 0 0 -0 13.6458 -0.047 -4.849 1.66051 0.0835086 5.75766 28.3255 -0.9759 2.2888 -0.0175111 0.895433 15.7816 22.1583 -0.53 10.8316 7.95139e-016 -1.98785e-016 -0 0.786 0.112 2.5817 5.46658e-016 -3.97569e-016 -0 0.3601 -0.878 4.2331 5.96354e-016 0 -0 1.8127 -1.216 2.2227 3.97569e-016 1.98785e-016 9.54166e-015 0.9571 1.114 1.7695 1.49089e-016 -3.97569e-016 -0 4.1246 0.487 4.1451 6.4605e-016 0 3.18055e-015 3.4052 -1.454 2.7682 5.96354e-016 0 3.18055e-015 1.4531 -1.795 1.2713 8.94531e-016 -1.98785e-016 6.36111e-015 5.6954 0.21 2.1184 6.4605e-016 0 3.18055e-015 3.9766 -1.54 2.3863 5.96354e-016 0 3.18055e-015 1.4042 -1.926 1.125 8.94531e-016 -1.98785e-016 6.36111e-015 2.0956 0.66 -0.3894 1.49089e-016 -3.97569e-016 -0 5.0395 -0.09 2.4971 6.4605e-016 0 3.18055e-015 3.7921 -1.552 1.4806 5.96354e-016 0 3.18055e-015 1.4655 -1.808 0.9609 8.94531e-016 -1.98785e-016 6.36111e-015 4.9141 -1.269 0.3591 6.4605e-016 0 3.18055e-015 3.1477 -1.685 0.8462 5.96354e-016 0 3.18055e-015 0.8055 -1.585 0.7955 8.94531e-016 -1.98785e-016 6.36111e-015 -1.7069 20.075 5.0056 0 0 -0 -13.6458 -0.047 -4.849 -1.4496 0.0636048 -5.0245 -28.3255 -0.9759 2.2888 -1.74811 1.20616 -16.8394 -22.1583 -0.53 10.8316 -1.19271e-015 1.98785e-016 -3.18055e-015 -0.786 0.112 2.5817 -3.97569e-016 1.98785e-016 -3.18055e-015 -0.3601 -0.878 4.2331 -2.98177e-016 1.98785e-016 -3.18055e-015 -1.8127 -1.216 2.2227 -2.98177e-016 3.97569e-016 -0 -0.9571 1.114 1.7695 4.96962e-016 0 -6.36111e-015 -4.1246 0.487 4.1451 -9.93923e-017 3.97569e-016 -0 -3.4052 -1.454 2.7682 -8.94531e-016 5.96354e-016 -0 -1.4531 -1.795 1.2713 -3.97569e-016 3.97569e-016 -0 -5.6954 0.21 2.1184 -9.93923e-017 3.97569e-016 -0 -3.9766 -1.54 2.3863 -8.94531e-016 5.96354e-016 -0 -1.4042 -1.926 1.125 -3.97569e-016 3.97569e-016 -0 -2.0956 0.66 -0.3894 4.96962e-016 0 -6.36111e-015 -5.0395 -0.09 2.4971 -9.93923e-017 3.97569e-016 -0 -3.7921 -1.552 1.4806 -8.94531e-016 5.96354e-016 -0 -1.4655 -1.808 0.9609 -3.97569e-016 3.97569e-016 -0 -4.9141 -1.269 0.3592 -9.93923e-017 3.97569e-016 -0 -3.1477 -1.685 0.8462 -8.94531e-016 5.96354e-016 -0 -0.8055 -1.585 0.7955 -3.97569e-016 3.97569e-016 -0 8.367 -8.2066 0.5982 -4.66115 -1.03232 0.120763 2.1923 -43.463 -0.4932 0.00990601 1.55097 0.177175 0.7333 -45.8593 -2.6451 4.65196 -0.54114 -0.255042 -8.367 -8.2066 0.5982 4.66115 -1.03222 -0.120763 -2.1923 -43.463 -0.4931 -0.00990459 1.5509 -0.177176 -0.7333 -45.8593 -2.6451 -4.65196 -0.541171 0.255041 
7.82661 63.1803 -2.91464 -0 -27.4083 -0 0 -1.186 -1.5018 0.0614556 5.25909 0.0369538 8.88178e-016 9.964 0.2134 0.120253 10.5182 0.0686516 0 13.134 -3.2573 0.120253 10.5182 0.0686516 0 20.686 -1.6905 4.56389e-006 4.07413 -1.50586e-008 0 7.238 -0.1237 -1.36929e-008 7.03612 -3.60169e-008 1.7069 20.075 5.0056 3.39391e-007 2.98807e-005 2.77165e-007 13.6458 -0.047 -4.849 -5.18183 -19.928 -25.6783 28.3255 -0.9759 2.2888 2.57593 7.48487 2.08066 22.1583 -0.53 10.8316 -7.92725 3.12751 0.0718693 0.786 0.112 2.5817 -2.64834e-031 4.77083e-015 3.18055e-015 0.3601 -0.878 4.2331 -7.95139e-016 1.59028e-015 -0 1.8127 -1.216 2.2227 4.16801e-007 8.29359e-008 -3.8313e-008 0.9571 1.114 1.7695 -2.64834e-031 4.77083e-015 3.18055e-015 4.1246 0.487 4.1451 -1.59028e-015 1.59028e-015 6.36111e-015 3.4052 -1.454 2.7682 -1.59028e-015 0 -0 1.4531 -1.795 1.2713 4.16801e-007 8.29359e-008 -3.8313e-008 5.6954 0.21 2.1184 -1.59028e-015 1.59028e-015 6.36111e-015 3.9766 -1.54 2.3863 -1.59028e-015 0 -0 1.4042 -1.926 1.125 4.16801e-007 8.29359e-008 -3.8313e-008 2.0956 0.66 -0.3894 -2.64834e-031 4.77083e-015 3.18055e-015 5.0395 -0.09 2.4971 -1.59028e-015 1.59028e-015 6.36111e-015 3.7921 -1.552 1.4806 -1.59028e-015 0 -0 1.4655 -1.808 0.9609 4.16801e-007 8.29359e-008 -3.8313e-008 4.9141 -1.269 0.3591 -1.59028e-015 1.59028e-015 6.36111e-015 3.1477 -1.685 0.8462 -1.59028e-015 0 -0 0.8055 -1.585 0.7955 4.16801e-007 8.29359e-008 -3.8313e-008 -1.7069 20.075 5.0056 3.12114e-007 -3.70449 2.2261e-007 -13.6458 -0.047 -4.849 -0.798278 3.30491 22.9054 -28.3255 -0.9759 2.2888 -1.62465 -7.85187 -5.36874 -22.1583 -0.53 10.8316 5.74037 -0.901698 7.29833 -0.786 0.112 2.5817 6.72855e-007 -5.75207e-008 2.83488e-006 -0.3601 -0.878 4.2331 6.40111e-007 -1.01739e-006 -3.68051e-008 -1.8127 -1.216 2.2227 -1.59028e-015 1.59028e-015 3.18055e-015 -0.9571 1.114 1.7695 7.95139e-016 1.59028e-015 3.18055e-015 -4.1246 0.487 4.1451 6.72855e-007 -5.75207e-008 2.83488e-006 -3.4052 -1.454 2.7682 6.40111e-007 -1.01739e-006 -3.68051e-008 -1.4531 -1.795 1.2713 -7.95139e-016 0 3.18055e-015 -5.6954 0.21 2.1184 6.72855e-007 -5.75207e-008 2.83488e-006 -3.9766 -1.54 2.3863 6.40111e-007 -1.01739e-006 -3.68051e-008 -1.4042 -1.926 1.125 -7.95139e-016 0 3.18055e-015 -2.0956 0.66 -0.3894 7.95139e-016 1.59028e-015 3.18055e-015 -5.0395 -0.09 2.4971 6.72855e-007 -5.75207e-008 2.83488e-006 -3.7921 -1.552 1.4806 6.40111e-007 -1.01739e-006 -3.68051e-008 -1.4655 -1.808 0.9609 -7.95139e-016 0 3.18055e-015 -4.9141 -1.269 0.3592 6.72855e-007 -5.75207e-008 2.83488e-006 -3.1477 -1.685 0.8462 6.40111e-007 -1.01739e-006 -3.68051e-008 -0.8055 -1.585 0.7955 -7.95139e-016 0 3.18055e-015 8.367 -8.2066 0.5982 8.75087 -27.5386 25.424 2.1923 -43.463 -0.4932 0.179854 37.545 1.9946 0.7333 -45.8593 -2.6451 6.93342 9.18491 -1.33965 -8.367 -8.2066 0.5982 -8.77435 -27.6022 -25.493 -2.1923 -43.463 -0.4931 -0.196583 38.6631 -2.18685 -0.7333 -45.8593 -2.6451 -5.16812 11.8637 0.800158 
15.6339 33.7641 -6.4428 -0 -54.8165 -0 0 -1.186 -1.5018 0.0987278 10.5179 0.100198 1.77636e-015 9.964 0.2134 0.183131 21.0361 0.186438 1.77636e-015 13.134 -3.2573 0.183131 21.036 0.186439 0 20.686 -1.6905 1.35259e-005 8.1483 -2.28983e-006 0 7.238 -0.1237 -2.89557e-008 14.0722 1.02568e-007 1.7069 20.075 5.0056 -4.67738e-008 1.06732e-006 -1.00385e-009 13.6458 -0.047 -4.849 -29.9514 -22.0011 -61.5716 28.3255 -0.9759 2.2888 8.28835 12.5011 -12.1744 22.1583 -0.53 10.8316 -15.8937 6.21508 0.577037 0.786 0.112 2.5817 -2.09071e-006 1.6666e-006 2.70977e-007 0.3601 -0.878 4.2331 -1.4181e-006 -9.21107e-007 2.09758e-007 1.8127 -1.216 2.2227 -1.63016e-006 9.57551e-007 2.15611e-007 0.9571 1.114 1.7695 2.20695e-031 3.97569e-015 -3.18055e-015 4.1246 0.487 4.1451 -2.09071e-006 1.6666e-006 2.70977e-007 3.4052 -1.454 2.7682 -1.4181e-006 -9.21107e-007 2.09758e-007 1.4531 -1.795 1.2713 -1.63016e-006 9.57551e-007 2.15611e-007 5.6954 0.21 2.1184 -2.09071e-006 1.6666e-006 2.70977e-007 3.9766 -1.54 2.3863 -1.4181e-006 -9.21107e-007 2.09758e-007 1.4042 -1.926 1.125 -1.63016e-006 9.57551e-007 2.15611e-007 2.0956 0.66 -0.3894 2.20695e-031 3.97569e-015 -3.18055e-015 5.0395 -0.09 2.4971 -2.09071e-006 1.6666e-006 2.70977e-007 3.7921 -1.552 1.4806 -1.4181e-006 -9.21107e-007 2.09758e-007 1.4655 -1.808 0.9609 -1.63016e-006 9.57551e-007 2.15611e-007 4.9141 -1.269 0.3591 -2.09071e-006 1.6666e-006 2.70977e-007 3.1477 -1.685 0.8462 -1.4181e-006 -9.21107e-007 2.09758e-007 0.8055 -1.585 0.7955 -1.63016e-006 9.57551e-007 2.15611e-007 -1.7069 20.075 5.0056 -9.71914e-009 -7.40903 -1.72273e-008 -13.6458 -0.047 -4.849 -3.0334 3.84335 50.9168 -28.3255 -0.9759 2.2888 1.99832 -15.5674 6.93651 -22.1583 -0.53 10.8316 12.0876 -1.44721 14.4292 -0.786 0.112 2.5817 -6.68848e-007 5.12341e-007 1.05892e-007 -0.3601 -0.878 4.2331 7.95139e-016 1.98785e-016 -3.18055e-015 -1.8127 -1.216 2.2227 -6.68848e-007 5.12341e-007 1.05892e-007 -0.9571 1.114 1.7695 -1.59028e-015 -4.37326e-015 3.18055e-015 -4.1246 0.487 4.1451 -6.68848e-007 5.12341e-007 1.05892e-007 -3.4052 -1.454 2.7682 9.37955e-032 3.37934e-015 -1.59028e-015 -1.4531 -1.795 1.2713 -6.68848e-007 5.12341e-007 1.05892e-007 -5.6954 0.21 2.1184 -6.68848e-007 5.12341e-007 1.05892e-007 -3.9766 -1.54 2.3863 9.37955e-032 3.37934e-015 -1.59028e-015 -1.4042 -1.926 1.125 -6.68848e-007 5.12341e-007 1.05892e-007 -2.0956 0.66 -0.3894 -1.59028e-015 -4.37326e-015 3.18055e-015 -5.0395 -0.09 2.4971 -6.68848e-007 5.12341e-007 1.05892e-007 -3.7921 -1.552 1.4806 9.37955e-032 3.37934e-015 -1.59028e-015 -1.4655 -1.808 0.9609 -6.68848e-007 5.12341e-007 1.05892e-007 -4.9141 -1.269 0.3592 -6.68848e-007 5.12341e-007 1.05892e-007 -3.1477 -1.685 0.8462 9.37955e-032 3.37934e-015 -1.59028e-015 -0.8055 -1.585 0.7955 -6.68848e-007 5.12341e-007 1.05892e-007 8.367 -8.2066 0.5982 46.3799 -38.7374 63.359 2.1923 -43.463 -0.4932 0.704122 74.532 2.1326 0.7333 -45.8593 -2.6451 8.99579 17.9412 -0.608157 -8.367 -8.2066 0.5982 -46.6193 -38.8232 -63.6687 -2.1923 -43.463 -0.4931 -0.899322 76.8381 -2.2472 -0.7333 -45.8593 -2.6451 -5.08487 23.218 -0.795036 
21.076 12.7615 -8.0614 -0 -74.0023 -0 0 -1.186 -1.5018 0.104037 14.199 0.161443 -3.55271e-015 9.964 0.2134 0.173674 28.3981 0.310354 0 13.134 -3.2573 0.173674 28.3981 0.310354 0 20.686 -1.6905 8.32075e-006 11 -2.29662e-006 -3.55271e-015 7.238 -0.1237 7.8467e-008 18.9975 -2.23348e-007 1.7069 20.075 5.0056 -2.00982e-008 2.34733e-006 1.08374e-007 13.6458 -0.047 -4.849 -46.4771 -9.43361 -79.686 28.3255 -0.9759 2.2888 13.8227 14.4911 -22.4724 22.1583 -0.53 10.8316 -21.518 8.32033 1.18789 0.786 0.112 2.5817 -7.95139e-016 1.06847e-015 7.95139e-016 0.3601 -0.878 4.2331 -7.95139e-016 -2.18663e-015 1.59028e-015 1.8127 -1.216 2.2227 -7.95139e-016 8.94531e-016 2.38542e-015 0.9571 1.114 1.7695 -7.95139e-016 -2.11209e-015 -0 4.1246 0.487 4.1451 1.19271e-015 -2.01269e-015 2.38542e-015 3.4052 -1.454 2.7682 -7.95139e-016 7.45443e-015 2.38542e-015 1.4531 -1.795 1.2713 -3.97569e-016 9.93923e-016 -0 5.6954 0.21 2.1184 1.19271e-015 -2.01269e-015 2.38542e-015 3.9766 -1.54 2.3863 -7.95139e-016 7.45443e-015 2.38542e-015 1.4042 -1.926 1.125 -3.97569e-016 9.93923e-016 -0 2.0956 0.66 -0.3894 -7.95139e-016 -2.11209e-015 -0 5.0395 -0.09 2.4971 1.19271e-015 -2.01269e-015 2.38542e-015 3.7921 -1.552 1.4806 -7.95139e-016 7.45443e-015 2.38542e-015 1.4655 -1.808 0.9609 -3.97569e-016 9.93923e-016 -0 4.9141 -1.269 0.3591 1.19271e-015 -2.01269e-015 2.38542e-015 3.1477 -1.685 0.8462 -7.95139e-016 7.45443e-015 2.38542e-015 0.8055 -1.585 0.7955 -3.97569e-016 9.93923e-016 -0 -1.7069 20.075 5.0056 1.94889e-008 -10.0022 3.68258e-007 -13.6458 -0.047 -4.849 -5.03189 1.69541 70.3028 -28.3255 -0.9759 2.2888 6.49754 -19.5688 16.2681 -22.1583 -0.53 10.8316 16.8465 -1.57506 19.303 -0.786 0.112 2.5817 -7.8059e-008 3.20845e-007 1.67229e-006 -0.3601 -0.878 4.2331 6.88137e-007 4.86307e-007 -1.0926e-007 -1.8127 -1.216 2.2227 -8.94555e-007 1.05543e-006 -1.50538e-006 -0.9571 1.114 1.7695 2.38542e-015 -1.59028e-015 -0 -4.1246 0.487 4.1451 -7.80589e-008 3.20845e-007 1.67229e-006 -3.4052 -1.454 2.7682 6.88137e-007 4.86307e-007 -1.0926e-007 -1.4531 -1.795 1.2713 -8.94555e-007 1.05543e-006 -1.50538e-006 -5.6954 0.21 2.1184 -7.80589e-008 3.20845e-007 1.67229e-006 -3.9766 -1.54 2.3863 6.88137e-007 4.86307e-007 -1.0926e-007 -1.4042 -1.926 1.125 -8.94555e-007 1.05543e-006 -1.50538e-006 -2.0956 0.66 -0.3894 2.38542e-015 -1.59028e-015 -0 -5.0395 -0.09 2.4971 -7.80589e-008 3.20845e-007 1.67229e-006 -3.7921 -1.552 1.4806 6.88137e-007 4.86307e-007 -1.0926e-007 -1.4655 -1.808 0.9609 -8.94555e-007 1.05543e-006 -1.50538e-006 -4.9141 -1.269 0.3592 -7.80589e-008 3.20845e-007 1.67229e-006 -3.1477 -1.685 0.8462 6.88137e-007 4.86307e-007 -1.0926e-007 -0.8055 -1.585 0.7955 -8.94555e-007 1.05543e-006 -1.50538e-006 8.367 -8.2066 0.5982 76.4474 -31.1671 87.9007 2.1923 -43.463 -0.4932 178.391 79.2966 -174.178 0.7333 -45.8593 -2.6451 10.2037 24.1493 -0.457903 -8.367 -8.2066 0.5982 -76.9399 -31.1797 -88.5034 -2.1923 -43.463 -0.4931 -178.61 76.1672 173.873 -0.7333 -45.8593 -2.6451 -4.58895 31.3298 -1.69281 
